Pride and Glory*2008*[BluRay][1080p][ENG, POL]

General information:
Country: USA, Germany 
Release: 9 September 2008 (Toronto International Film Festival)
Genre: Crime, Drama, Thriller 
Director: Gavin O'Connor
Screenplay: Joe Carnahan, Gavin O'Connor
Original Music: Mark Isham 
Cinematography by: Declan Quinn 
Duration: 2h 10mn
Language: English, Polish
Subtitles: English, Polish
Rating: 6.9/10 - 7432 votes 

Cast:
Colin Farrell  ...  Jimmy Egan  
Edward Norton  ...  Ray Tierney  
Jon Voight  ...  Francis Tierney, Sr.  
Noah Emmerich  ...  Francis Tierney, Jr.  
Jennifer Ehle  ...  Abby Tierney  
John Ortiz  ...  Ruben Santiago  
Frank Grillo  ...  Eddie Carbone  
Shea Whigham  ...  Kenny Dugan  
Lake Bell  ...  Megan Egan  
Carmen Ejogo  ...  Tasha  
Manny Perez  ...  Coco Dominguez  
Wayne Duvall  ...  Bill Avery  
Ramon Rodriguez  ...  Angel Tezo  
Rick Gonzalez  ...  Eladio Casado  
Maximiliano Hernández  ...  Carlos Bragon (as Maximiliano Hernandez)  

Plot:
A saga centered on a multi-generational family of New York City Police officers. The family's moral codes are tested when Ray Tierney, investigates a case that reveals an incendiary police corruption scandal involving his own brother-in-law. For Ray, the truth is revelatory, a Pandora's Box that threatens to upend not only the Tierney legacy but the entire NYPD.

Specifications:
General
Format                           : Matroska
Overall bit rate                 : 8 114 Kbps

Video
Format                           : AVC
Format/Info                      : Advanced Video Codec
Format profile                   : High@L4.0
Format settings, CABAC           : Yes
Format settings, ReFrames        : 3 frames
Format settings, GOP             : M=4, N=29
Muxing mode                      : Container profile=Unknown@4.0
Codec ID                         : V_MPEG4/ISO/AVC
Bit rate                         : 7 030 Kbps
Width                            : 1 920 pixels
Height                           : 1 080 pixels
Display aspect ratio             : 16:9
Frame rate                       : 23.976 fps

Audio 1
Format                           : AC-3
Format/Info                      : Audio Coding 3
Mode extension                   : CM (complete main)
Codec ID                         : A_AC3
Bit rate mode                    : Constant
Bit rate                         : 640 Kbps
Channel(s)                       : 6 channels
Channel positions                : Front: L C R, Side: L R, LFE
Sampling rate                    : 48.0 KHz
Stream size                      : 596 MiB (8%)
Title                            : English

Audio 2
Format                           : AC-3
Format/Info                      : Audio Coding 3
Mode extension                   : CM (complete main)
Codec ID                         : A_AC3
Bit rate mode                    : Constant
Bit rate                         : 448 Kbps
Channel(s)                       : 6 channels
Channel positions                : Front: L C R, Side: L R, LFE
Sampling rate                    : 48.0 KHz
Stream size                      : 417 MiB (6%)
Title                            : Polish

Text 1
Format                           : UTF-8
Codec ID                         : S_TEXT/UTF8
Codec ID/Info                    : UTF-8 Plain Text
Title                            : English

Text 2
Format                           : UTF-8
Codec ID                         : S_TEXT/UTF8
Codec ID/Info                    : UTF-8 Plain Text
Title                            : Polish
